<svg
  xmlns="http://www.w3.org/2000/svg"
  viewBox="0 0 24 24"
  width="48"
  height="48"
  fill="none"
  stroke="currentColor"
  stroke-width="2"
  stroke-linecap="round"
  stroke-linejoin="round"
>
  <circle cx="12" cy="12" r="10" />
  <path d="M8 3.5C8 3.22386 8.22386 3 8.5 3C8.77614 3 9 3.22386 9 3.5V8.5C9 8.77614 8.77614 9 8.5 9C8.22386 9 8 8.77614 8 8.5V3.5Z" />
  <path d="M8 12.5C8 12.2239 8.22386 12 8.5 12C8.77614 12 9 12.2239 9 12.5V21.5C9 21.7761 8.77614 22 8.5 22C8.22386 22 8 21.7761 8 21.5V12.5Z" />
  <path d="M15 3.5C15 3.22386 15.2239 3 15.5 3C15.7761 3 16 3.22386 16 3.5V10.5C16 10.7761 15.7761 11 15.5 11C15.2239 11 15 10.7761 15 10.5V3.5Z" />
  <path d="M15 14.5C15 14.2239 15.2239 14 15.5 14C15.7761 14 16 14.2239 16 14.5V21.5C16 21.7761 15.7761 22 15.5 22C15.2239 22 15 21.7761 15 21.5V14.5Z" />
  <path d="M2 12C2 6.47715 6.47715 2 12 2C17.5228 2 22 6.47715 22 12" />
</svg>
